{
  "asset": {
    "version": "2.0",
    "generator": "generate_shaman_gltf.py"
  },
  "scenes": [
    {
      "nodes": [
        0
      ]
    }
  ],
  "nodes": [
    {
      "name": "Torso",
      "translation": [
        0,
        0.9,
        0
      ],
      "mesh": 0,
      "children": [
        1,
        3,
        4,
        6,
        7
      ]
    },
    {
      "name": "Head",
      "translation": [
        0,
        0.4,
        0
      ],
      "mesh": 1,
      "children": [
        2
      ]
    },
    {
      "name": "Headdress",
      "translation": [
        0,
        0.25,
        0
      ],
      "mesh": 2
    },
    {
      "name": "ArmL",
      "translation": [
        0.28,
        0.15,
        0
      ],
      "mesh": 3
    },
    {
      "name": "ArmR",
      "translation": [
        -0.28,
        0.15,
        0
      ],
      "mesh": 4,
      "children": [
        5
      ]
    },
    {
      "name": "Staff",
      "translation": [
        0,
        -0.4,
        0.1
      ],
      "mesh": 5
    },
    {
      "name": "LegL",
      "translation": [
        0.12,
        -0.35,
        0
      ],
      "mesh": 6
    },
    {
      "name": "LegR",
      "translation": [
        -0.12,
        -0.35,
        0
      ],
      "mesh": 7
    }
  ],
  "meshes": [
    {
      "name": "TorsoMesh",
      "primitives": [
        {
          "attributes": {
            "POSITION": 0,
            "NORMAL": 1,
            "TEXCOORD_0": 2
          },
          "indices": 3,
          "material": 0
        }
      ]
    },
    {
      "name": "HeadMesh",
      "primitives": [
        {
          "attributes": {
            "POSITION": 4,
            "NORMAL": 5,
            "TEXCOORD_0": 6
          },
          "indices": 7,
          "material": 2
        }
      ]
    },
    {
      "name": "HeaddressMesh",
      "primitives": [
        {
          "attributes": {
            "POSITION": 8,
            "NORMAL": 9,
            "TEXCOORD_0": 10
          },
          "indices": 11,
          "material": 3
        }
      ]
    },
    {
      "name": "ArmLMesh",
      "primitives": [
        {
          "attributes": {
            "POSITION": 12,
            "NORMAL": 13,
            "TEXCOORD_0": 14
          },
          "indices": 15,
          "material": 1
        }
      ]
    },
    {
      "name": "ArmRMesh",
      "primitives": [
        {
          "attributes": {
            "POSITION": 16,
            "NORMAL": 17,
            "TEXCOORD_0": 18
          },
          "indices": 19,
          "material": 1
        }
      ]
    },
    {
      "name": "StaffMesh",
      "primitives": [
        {
          "attributes": {
            "POSITION": 20,
            "NORMAL": 21,
            "TEXCOORD_0": 22
          },
          "indices": 23,
          "material": 4
        }
      ]
    },
    {
      "name": "LegLMesh",
      "primitives": [
        {
          "attributes": {
            "POSITION": 24,
            "NORMAL": 25,
            "TEXCOORD_0": 26
          },
          "indices": 27,
          "material": 0
        }
      ]
    },
    {
      "name": "LegRMesh",
      "primitives": [
        {
          "attributes": {
            "POSITION": 28,
            "NORMAL": 29,
            "TEXCOORD_0": 30
          },
          "indices": 31,
          "material": 0
        }
      ]
    }
  ],
  "materials": [
    {
      "name": "ShamanRobe",
      "pbrMetallicRoughness": {
        "baseColorFactor": [
          0.85,
          0.25,
          0.1,
          1.0
        ],
        "roughnessFactor": 0.7,
        "metallicFactor": 0.1
      }
    },
    {
      "name": "ShamanSkin",
      "pbrMetallicRoughness": {
        "baseColorFactor": [
          0.82,
          0.7,
          0.55,
          1.0
        ],
        "roughnessFactor": 0.7,
        "metallicFactor": 0.1
      }
    },
    {
      "name": "ShamanMask",
      "pbrMetallicRoughness": {
        "baseColorFactor": [
          0.95,
          0.85,
          0.3,
          0.8
        ],
        "roughnessFactor": 0.6,
        "metallicFactor": 0.2
      }
    },
    {
      "name": "ShamanFeather",
      "pbrMetallicRoughness": {
        "baseColorFactor": [
          0.95,
          0.95,
          0.95,
          1.0
        ],
        "roughnessFactor": 0.8,
        "metallicFactor": 0.1
      }
    },
    {
      "name": "ShamanStaff",
      "pbrMetallicRoughness": {
        "baseColorFactor": [
          0.45,
          0.28,
          0.12,
          1.0
        ],
        "roughnessFactor": 0.8,
        "metallicFactor": 0.1
      }
    },
    {
      "name": "ShamanOrb",
      "pbrMetallicRoughness": {
        "baseColorFactor": [
          1.0,
          0.84,
          0.0,
          1.0
        ],
        "roughnessFactor": 0.2,
        "metallicFactor": 0.8
      }
    }
  ],
  "accessors": [
    {
      "bufferView": 0,
      "byteOffset": 0,
      "componentType": 5126,
      "count": 128,
      "type": "VEC3",
      "min": [
        -0.38,
        -0.4,
        -0.3614014761921584
      ],
      "max": [
        0.38,
        0.375,
        0.3614014761921584
      ]
    },
    {
      "bufferView": 1,
      "byteOffset": 0,
      "componentType": 5126,
      "count": 128,
      "type": "VEC3"
    },
    {
      "bufferView": 2,
      "byteOffset": 0,
      "componentType": 5126,
      "count": 128,
      "type": "VEC2"
    },
    {
      "bufferView": 3,
      "byteOffset": 0,
      "componentType": 5123,
      "count": 192,
      "type": "SCALAR"
    },
    {
      "bufferView": 4,
      "byteOffset": 0,
      "componentType": 5126,
      "count": 171,
      "type": "VEC3",
      "min": [
        -0.20388139589045698,
        -0.04000000000000001,
        -0.15216904260722458
      ],
      "max": [
        0.20388139589045698,
        0.3462556754354543,
        0.19
      ]
    },
    {
      "bufferView": 5,
      "byteOffset": 0,
      "componentType": 5126,
      "count": 171,
      "type": "VEC3"
    },
    {
      "bufferView": 6,
      "byteOffset": 0,
      "componentType": 5126,
      "count": 171,
      "type": "VEC2"
    },
    {
      "bufferView": 7,
      "byteOffset": 0,
      "componentType": 5123,
      "count": 588,
      "type": "SCALAR"
    },
    {
      "bufferView": 8,
      "byteOffset": 0,
      "componentType": 5126,
      "count": 72,
      "type": "VEC3",
      "min": [
        -0.18,
        -0.08,
        -0.18
      ],
      "max": [
        0.18,
        0.65,
        0.18
      ]
    },
    {
      "bufferView": 9,
      "byteOffset": 0,
      "componentType": 5126,
      "count": 72,
      "type": "VEC3"
    },
    {
      "bufferView": 10,
      "byteOffset": 0,
      "componentType": 5126,
      "count": 72,
      "type": "VEC2"
    },
    {
      "bufferView": 11,
      "byteOffset": 0,
      "componentType": 5123,
      "count": 108,
      "type": "SCALAR"
    },
    {
      "bufferView": 12,
      "byteOffset": 0,
      "componentType": 5126,
      "count": 163,
      "type": "VEC3",
      "min": [
        -0.07,
        -0.515,
        -0.07
      ],
      "max": [
        0.07,
        0.0050000000000000044,
        0.07
      ]
    },
    {
      "bufferView": 13,
      "byteOffset": 0,
      "componentType": 5126,
      "count": 163,
      "type": "VEC3"
    },
    {
      "bufferView": 14,
      "byteOffset": 0,
      "componentType": 5126,
      "count": 163,
      "type": "VEC2"
    },
    {
      "bufferView": 15,
      "byteOffset": 0,
      "componentType": 5123,
      "count": 576,
      "type": "SCALAR"
    },
    {
      "bufferView": 16,
      "byteOffset": 0,
      "componentType": 5126,
      "count": 163,
      "type": "VEC3",
      "min": [
        -0.07,
        -0.515,
        -0.07
      ],
      "max": [
        0.07,
        0.0050000000000000044,
        0.07
      ]
    },
    {
      "bufferView": 17,
      "byteOffset": 0,
      "componentType": 5126,
      "count": 163,
      "type": "VEC3"
    },
    {
      "bufferView": 18,
      "byteOffset": 0,
      "componentType": 5126,
      "count": 163,
      "type": "VEC2"
    },
    {
      "bufferView": 19,
      "byteOffset": 0,
      "componentType": 5123,
      "count": 576,
      "type": "SCALAR"
    },
    {
      "bufferView": 20,
      "byteOffset": 0,
      "componentType": 5126,
      "count": 155,
      "type": "VEC3",
      "min": [
        -0.1,
        -0.7,
        -0.09510565162951537
      ],
      "max": [
        0.1,
        1.2200000000000002,
        0.09510565162951537
      ]
    },
    {
      "bufferView": 21,
      "byteOffset": 0,
      "componentType": 5126,
      "count": 155,
      "type": "VEC3"
    },
    {
      "bufferView": 22,
      "byteOffset": 0,
      "componentType": 5126,
      "count": 155,
      "type": "VEC2"
    },
    {
      "bufferView": 23,
      "byteOffset": 0,
      "componentType": 5123,
      "count": 564,
      "type": "SCALAR"
    },
    {
      "bufferView": 24,
      "byteOffset": 0,
      "componentType": 5126,
      "count": 88,
      "type": "VEC3",
      "min": [
        -0.08,
        -0.6000000000000001,
        -0.08
      ],
      "max": [
        0.08,
        0.0,
        0.15000000000000002
      ]
    },
    {
      "bufferView": 25,
      "byteOffset": 0,
      "componentType": 5126,
      "count": 88,
      "type": "VEC3"
    },
    {
      "bufferView": 26,
      "byteOffset": 0,
      "componentType": 5126,
      "count": 88,
      "type": "VEC2"
    },
    {
      "bufferView": 27,
      "byteOffset": 0,
      "componentType": 5123,
      "count": 132,
      "type": "SCALAR"
    },
    {
      "bufferView": 28,
      "byteOffset": 0,
      "componentType": 5126,
      "count": 88,
      "type": "VEC3",
      "min": [
        -0.08,
        -0.6000000000000001,
        -0.08
      ],
      "max": [
        0.08,
        0.0,
        0.15000000000000002
      ]
    },
    {
      "bufferView": 29,
      "byteOffset": 0,
      "componentType": 5126,
      "count": 88,
      "type": "VEC3"
    },
    {
      "bufferView": 30,
      "byteOffset": 0,
      "componentType": 5126,
      "count": 88,
      "type": "VEC2"
    },
    {
      "bufferView": 31,
      "byteOffset": 0,
      "componentType": 5123,
      "count": 132,
      "type": "SCALAR"
    }
  ],
  "bufferViews": [
    {
      "buffer": 0,
      "byteOffset": 0,
      "byteLength": 1536,
      "target": 34962
    },
    {
      "buffer": 0,
      "byteOffset": 1536,
      "byteLength": 1536,
      "target": 34962
    },
    {
      "buffer": 0,
      "byteOffset": 3072,
      "byteLength": 1024,
      "target": 34962
    },
    {
      "buffer": 0,
      "byteOffset": 4096,
      "byteLength": 384,
      "target": 34963
    },
    {
      "buffer": 0,
      "byteOffset": 4480,
      "byteLength": 2052,
      "target": 34962
    },
    {
      "buffer": 0,
      "byteOffset": 6532,
      "byteLength": 2052,
      "target": 34962
    },
    {
      "buffer": 0,
      "byteOffset": 8584,
      "byteLength": 1368,
      "target": 34962
    },
    {
      "buffer": 0,
      "byteOffset": 9952,
      "byteLength": 1176,
      "target": 34963
    },
    {
      "buffer": 0,
      "byteOffset": 11128,
      "byteLength": 864,
      "target": 34962
    },
    {
      "buffer": 0,
      "byteOffset": 11992,
      "byteLength": 864,
      "target": 34962
    },
    {
      "buffer": 0,
      "byteOffset": 12856,
      "byteLength": 576,
      "target": 34962
    },
    {
      "buffer": 0,
      "byteOffset": 13432,
      "byteLength": 216,
      "target": 34963
    },
    {
      "buffer": 0,
      "byteOffset": 13648,
      "byteLength": 1956,
      "target": 34962
    },
    {
      "buffer": 0,
      "byteOffset": 15604,
      "byteLength": 1956,
      "target": 34962
    },
    {
      "buffer": 0,
      "byteOffset": 17560,
      "byteLength": 1304,
      "target": 34962
    },
    {
      "buffer": 0,
      "byteOffset": 18864,
      "byteLength": 1152,
      "target": 34963
    },
    {
      "buffer": 0,
      "byteOffset": 20016,
      "byteLength": 1956,
      "target": 34962
    },
    {
      "buffer": 0,
      "byteOffset": 21972,
      "byteLength": 1956,
      "target": 34962
    },
    {
      "buffer": 0,
      "byteOffset": 23928,
      "byteLength": 1304,
      "target": 34962
    },
    {
      "buffer": 0,
      "byteOffset": 25232,
      "byteLength": 1152,
      "target": 34963
    },
    {
      "buffer": 0,
      "byteOffset": 26384,
      "byteLength": 1860,
      "target": 34962
    },
    {
      "buffer": 0,
      "byteOffset": 28244,
      "byteLength": 1860,
      "target": 34962
    },
    {
      "buffer": 0,
      "byteOffset": 30104,
      "byteLength": 1240,
      "target": 34962
    },
    {
      "buffer": 0,
      "byteOffset": 31344,
      "byteLength": 1128,
      "target": 34963
    },
    {
      "buffer": 0,
      "byteOffset": 32472,
      "byteLength": 1056,
      "target": 34962
    },
    {
      "buffer": 0,
      "byteOffset": 33528,
      "byteLength": 1056,
      "target": 34962
    },
    {
      "buffer": 0,
      "byteOffset": 34584,
      "byteLength": 704,
      "target": 34962
    },
    {
      "buffer": 0,
      "byteOffset": 35288,
      "byteLength": 264,
      "target": 34963
    },
    {
      "buffer": 0,
      "byteOffset": 35552,
      "byteLength": 1056,
      "target": 34962
    },
    {
      "buffer": 0,
      "byteOffset": 36608,
      "byteLength": 1056,
      "target": 34962
    },
    {
      "buffer": 0,
      "byteOffset": 37664,
      "byteLength": 704,
      "target": 34962
    },
    {
      "buffer": 0,
      "byteOffset": 38368,
      "byteLength": 264,
      "target": 34963
    }
  ],
  "buffers": [
    {
      "byteLength": 38632,
      "uri": "data:application/octet-stream;base64,"
    }
  ]
}